<svg width="475" height="566" viewBox="0 0 475 566" fill="none" xmlns="http://www.w3.org/2000/svg">
<path d="M212.297 490.008L196.186 513.512L181.737 506.14L193.534 479.163L212.297 490.008Z" fill="#FCC2B7"/>
<path d="M148.939 501.521C153.492 519.399 192.392 527.037 192.392 527.037C192.392 527.037 194.105 525.384 195.085 522.052C195.173 521.649 195.324 521.344 195.412 520.941C196.29 516.911 202.433 508.119 202.433 508.119C201.698 503.738 189.491 510.11 189.491 510.11C191.534 497.638 184.292 494.033 184.292 494.033C176.64 505.873 151.175 498.632 151.175 498.632L148.939 501.521Z" fill="#D5D7DB"/>
<path d="M104.604 321.814L79.4171 335.107L70.0215 321.872L93.1174 303.475L104.604 321.814Z" fill="#FCC2B7"/>
<path d="M252.042 230.199L270.071 236.663L273.899 233.445L302.109 209.878L332.111 178.09L338.477 171.373L375.22 134.639C375.22 134.639 359.261 130.315 351.018 129.362C342.774 128.409 295.432 178.873 283.642 186.434C271.852 193.994 252.042 230.199 252.042 230.199Z" fill="#FCC2B7"/>
<path d="M269.475 233.578L273.899 233.445L302.109 209.878L335.5 182L326.93 159.991L326.93 171.5C326.93 171.5 320.871 180.03 303.024 203.746C295.997 213.104 283.761 223.1 269.475 233.578Z" fill="#EAADA4"/>
<path d="M43.1449 302.54C38.8149 320.445 69.7046 345.372 69.7046 345.372C69.7046 345.372 71.7762 344.787 74.0602 342.629C74.4396 342.226 74.8189 341.823 75.1982 341.42C77.8692 338.26 87.3558 333.352 87.3558 333.352C88.7924 329.132 75.0005 329.133 75.0005 329.133C82.6571 319.114 77.9079 312.524 77.9079 312.524C66.6112 318.87 49.3774 303.89 46.8215 301.489C46.6316 301.259 46.497 301.133 46.497 301.133L43.1449 302.54Z" fill="#D5D7DB"/>
<path d="M303.899 335.022L216.552 272.687L101.051 330.221L83.0033 304.148L206.348 219.858C211.771 216.144 218.849 216.112 224.237 219.706L364.5 289.5L303.899 335.022Z" fill="#4168C4"/>
<path d="M312.344 160.61C328.626 165.004 326.384 183.427 326.384 183.427L326.777 183.175L366.745 161.496C366.745 161.496 356.129 128.788 350.937 129.344C345.745 129.901 331.613 142.776 331.613 142.776L315.208 157.942L312.344 160.61Z" fill="#E7B710"/>
<path d="M312.344 160.61C328.626 165.004 326.384 183.427 326.384 183.427L326.777 183.175L327.554 180.389C327.554 180.389 333.751 165.531 315.109 158.005L312.344 160.61Z" fill="#FFCC5A"/>
<path fill-rule="evenodd" clip-rule="evenodd" d="M219.868 243.816L91.9688 316.98L92.4653 317.848L219.843 244.982L320.531 308.389L321.064 307.543L219.868 243.816Z" fill="#305ABC"/>
<path d="M378.722 124.005C378.722 124.005 364.616 134.437 357.675 123.637C350.733 112.837 355.829 89.4645 364.216 82.0063C372.603 74.5481 377.34 72.2038 387.476 76.1024C397.613 80.001 406.415 86.1415 393.635 113.748L378.722 124.005Z" fill="#FCC2B7"/>
<path d="M322.066 217.184C322.006 228.315 316.989 264.116 309.02 279.348C308.317 280.63 309.148 282.246 310.6 282.563C327.567 285.756 408.928 300.202 424.401 284.665C424.401 284.665 434.057 174.484 430.798 166.175C427.539 157.866 426.173 152.502 401.763 140.426C401.314 140.159 400.847 139.973 400.381 139.787C399.851 139.503 399.223 139.281 398.694 138.997C394.773 137.213 390.701 135.735 386.737 134.533L386.656 134.515C384.675 133.914 382.675 133.394 380.757 132.891L380.676 132.874C379.627 132.645 378.677 132.353 377.709 132.142C376.821 131.949 375.934 131.755 375.127 131.579C374.643 131.474 374.159 131.368 373.675 131.263C370.35 130.622 367.249 130.115 364.292 129.723C363.629 129.663 363.064 129.54 362.401 129.48C359.928 129.194 357.697 128.961 355.708 128.78C350.306 128.362 345.113 130.861 342.186 135.372C336.9 143.338 331.599 160.671 329.498 167.98C329.383 168.124 322.106 205.373 322.066 217.184Z" fill="#F6C411"/>
<path d="M362.383 129.561C362.423 134.804 364.539 141.766 374.451 145.531C387.404 150.466 396.689 143.541 400.479 139.724C399.949 139.44 399.322 139.218 398.792 138.934C394.871 137.15 390.799 135.672 386.835 134.47L386.755 134.452C384.773 133.851 382.774 133.331 380.855 132.828L380.774 132.811C379.725 132.582 378.775 132.29 377.807 132.079C376.919 131.886 376.032 131.692 375.225 131.516C374.741 131.411 374.257 131.305 373.773 131.2C370.448 130.559 367.347 130.052 364.39 129.66C363.611 129.744 363.029 129.701 362.383 129.561Z" fill="#FFD371"/>
<path d="M419.944 202.391C419.944 202.391 394.215 240.936 391.723 244.614C389.231 248.292 367.576 273.963 363.367 273.89C359.157 273.816 323.635 266.578 315.149 258.987L349.835 250.677L419.944 202.391Z" fill="#E7B710"/>
<path d="M419.032 200.757C419.032 200.757 369.685 264.292 358.598 268.629C347.511 272.966 295.567 251.509 295.567 251.509L264.423 235.432L269.056 229.688C269.056 229.688 285.087 229.806 288.139 231.316C291.19 232.825 294.697 236.122 299.713 236.372C304.729 236.621 348.054 231.715 348.054 231.715L387.856 177.074L419.032 200.757Z" fill="#FCC2B7"/>
<path d="M189.253 483.295C191.426 488.834 215.804 493.305 215.804 493.305L279.521 375.493C279.521 375.493 280.219 375.392 281.633 375.11C292.371 373.145 343.065 363.514 386.699 349.051C407.465 342.181 417.479 329.59 422.012 317.323C428.193 300.604 424.401 284.665 424.401 284.665L341.77 287.67L235.509 344.791C235.509 344.791 187.08 477.756 189.253 483.295Z" fill="#527BDD"/>
<path d="M367.847 125.433C367.847 125.433 367.959 126.47 367.779 128.457C367.694 129.621 367.459 131.089 367.072 132.862C367.072 132.862 367.181 133.139 367.353 133.514C368.709 136.596 375.821 149.713 395.309 139.019C395.309 139.019 388.996 135.025 393.99 112.897L367.847 125.433Z" fill="#FCC2B7"/>
<path d="M386.594 89.8402C386.594 89.8402 361.441 92.7986 358.325 76.0784C355.21 59.3582 358.054 54.0684 373.031 59.0224C388.007 63.9764 385.268 72.6659 394.142 74.6008C403.016 76.5357 409.47 77.9429 407.362 87.6143C405.253 97.2856 398.368 121.112 388.655 111.396C388.655 111.396 385.851 104.875 386.594 89.8402Z" fill="#121958"/>
<path d="M367.208 205.498C386.503 208.861 396.302 223.999 397.844 226.615C397.953 226.892 398.097 227.008 398.097 227.008L400.557 224.251L400.655 224.188L421.674 200.657L389.412 174.205L369.38 202.51L367.208 205.498Z" fill="#F6C411"/>
<path fill-rule="evenodd" clip-rule="evenodd" d="M361.718 100.94C361.569 100.707 361.259 100.64 361.027 100.789L361.297 101.21C361.027 100.789 361.027 100.789 361.027 100.789L361.025 100.79L361.02 100.794L361.001 100.806C360.985 100.816 360.962 100.832 360.932 100.852C360.871 100.892 360.784 100.951 360.672 101.028C360.449 101.182 360.131 101.408 359.745 101.699C358.976 102.281 357.934 103.124 356.847 104.173C356.354 104.633 355.958 105.105 355.762 105.592C355.551 106.115 355.574 106.653 355.915 107.144C356.228 107.595 356.775 107.954 357.494 108.263C358.224 108.575 359.191 108.861 360.416 109.128C360.685 109.187 360.952 109.016 361.011 108.746C361.07 108.476 360.898 108.21 360.629 108.151C359.433 107.89 358.535 107.621 357.888 107.343C357.23 107.061 356.89 106.794 356.736 106.574C356.611 106.393 356.589 106.215 356.689 105.966C356.804 105.683 357.072 105.33 357.532 104.902L357.539 104.896C358.591 103.88 359.601 103.061 360.348 102.497C360.721 102.215 361.028 101.997 361.241 101.85C361.347 101.777 361.43 101.721 361.485 101.684C361.513 101.666 361.534 101.652 361.548 101.643L361.563 101.633L361.566 101.631C361.799 101.482 361.867 101.172 361.718 100.94Z" fill="#D87C7C"/>
<path fill-rule="evenodd" clip-rule="evenodd" d="M358.384 113.615C358.114 113.671 357.94 113.936 357.996 114.206C358.42 116.258 359.16 117.547 360.112 118.262C361.077 118.987 362.171 119.057 363.146 118.862C364.114 118.668 365.005 118.209 365.64 117.812C365.961 117.612 366.224 117.424 366.408 117.285C366.5 117.215 366.572 117.157 366.622 117.116C366.647 117.096 366.667 117.08 366.681 117.068L366.697 117.054L366.701 117.05L366.703 117.049L366.703 117.049C366.704 117.049 366.704 117.048 366.377 116.67M366.051 116.291C366.051 116.291 366.051 116.291 366.051 116.291L366.048 116.293L366.038 116.302C366.028 116.311 366.012 116.324 365.991 116.341C365.949 116.375 365.886 116.425 365.804 116.488C365.639 116.612 365.401 116.783 365.111 116.964C364.524 117.33 363.75 117.721 362.95 117.881C362.159 118.039 361.382 117.965 360.713 117.463C360.031 116.951 359.373 115.931 358.975 114.004C358.919 113.733 358.654 113.559 358.384 113.615M366.051 116.291L366.051 116.291L366.051 116.291Z" fill="#D87C7C"/>
<path d="M369.906 99.7099C369.104 99.535 368.611 98.6716 368.805 97.7813C368.999 96.8911 369.807 96.3112 370.609 96.4861C371.411 96.6609 371.904 97.5244 371.71 98.4146C371.516 99.3048 370.708 99.8847 369.906 99.7099Z" fill="#121958"/>
<path d="M360.65 96.4253C359.982 96.2796 359.597 95.4398 359.791 94.5496C359.985 93.6594 360.684 93.0558 361.353 93.2015C362.021 93.3473 362.406 94.1871 362.211 95.0773C362.017 95.9675 361.318 96.571 360.65 96.4253Z" fill="#121958"/>
<path d="M375.594 95.7156C375.541 95.9574 375.282 95.9852 375.138 95.8695C374.489 94.9682 373.048 93.0499 371.316 92.0812C371.316 92.0812 369.878 90.9235 371.667 90.4693C373.376 89.9976 375.823 92.7263 375.594 95.7156Z" fill="#121958"/>
<path d="M359.726 89.8076C359.611 89.9512 359.8 90.2458 359.996 90.1198C360.926 89.7315 363.01 89.0884 364.676 89.1984C364.676 89.1984 366.315 89.049 365.235 87.8004C364.299 86.6676 361.078 87.4851 359.726 89.8076Z" fill="#121958"/>
<path d="M386.099 99.8634C386.099 99.8634 390.276 92.3316 395.22 96.7867C400.165 101.242 390.795 109.33 386.762 108.451C382.728 107.571 386.099 99.8634 386.099 99.8634Z" fill="#FCC2B7"/>
<path fill-rule="evenodd" clip-rule="evenodd" d="M415.619 309.434C415.619 309.434 415.62 309.434 415.726 308.945C415.833 308.457 415.833 308.457 415.833 308.457L415.832 308.457L415.826 308.455L415.797 308.449C415.771 308.442 415.732 308.433 415.679 308.419C415.573 308.392 415.416 308.35 415.216 308.289C414.815 308.168 414.24 307.976 413.555 307.691C412.184 307.122 410.38 306.188 408.643 304.731C405.189 301.836 401.954 296.843 402.971 288.386L401.978 288.267C400.918 297.087 404.309 302.403 408 305.498C409.835 307.036 411.734 308.018 413.172 308.615C413.892 308.914 414.498 309.117 414.927 309.247C415.142 309.311 415.312 309.358 415.43 309.388C415.489 309.403 415.535 309.414 415.567 309.422L415.604 309.43L415.615 309.433L415.618 309.433L415.619 309.434Z" fill="#4269C8"/>
<path fill-rule="evenodd" clip-rule="evenodd" d="M389.448 173.425L369.195 202.357L370.014 202.93L390.267 173.998L389.448 173.425Z" fill="#E8AA0F"/>
<path fill-rule="evenodd" clip-rule="evenodd" d="M417.732 286.376C417.732 286.376 417.732 286.376 417.244 286.481L416.755 286.587L416.755 286.589L416.758 286.599L416.766 286.639C416.774 286.675 416.785 286.729 416.799 286.801C416.828 286.943 416.869 287.154 416.919 287.425C417.02 287.968 417.157 288.754 417.3 289.722C417.586 291.658 417.897 294.319 417.998 297.22C418.099 300.123 417.989 303.251 417.44 306.127C416.89 309.008 415.907 311.594 414.294 313.453C413.936 313.866 413.127 314.431 411.837 315.133C410.566 315.823 408.888 316.616 406.851 317.495C402.778 319.255 397.304 321.349 390.868 323.657C377.999 328.273 361.313 333.733 344.361 339.059C310.449 349.712 275.517 359.815 267.979 361.538L267.739 361.593L208.071 491.594L208.98 492.011L268.442 362.458C276.498 360.573 311.102 350.556 344.661 340.013C361.618 334.685 378.319 329.221 391.206 324.598C397.649 322.288 403.146 320.185 407.247 318.413C409.297 317.528 411.007 316.722 412.314 316.011C413.602 315.311 414.561 314.672 415.049 314.109C416.824 312.063 417.855 309.284 418.422 306.314C418.99 303.339 419.1 300.131 418.997 297.185C418.895 294.237 418.579 291.537 418.289 289.575C418.144 288.594 418.005 287.796 417.903 287.243C417.851 286.966 417.809 286.75 417.779 286.603C417.765 286.53 417.753 286.473 417.745 286.435L417.736 286.392L417.733 286.38L417.732 286.376Z" fill="#4269C8"/>
<path d="M367.208 205.498C386.503 208.861 396.302 223.999 397.844 226.615L398.167 226.685L400.557 224.251L400.655 224.188C390.739 204.55 369.38 202.51 369.38 202.51L367.208 205.498Z" fill="#FFD371"/>
<path d="M367.761 128.538C367.677 129.702 367.441 131.17 367.055 132.943C367.055 132.943 367.163 133.22 367.335 133.595C372.029 131.833 379.822 127.875 385.75 119.29C386.133 118.698 386.596 118.123 386.916 117.433C386.505 117.766 376.887 126.222 367.94 128.493C367.94 128.493 367.86 128.475 367.761 128.538Z" fill="#EAADA4"/>
<path d="M347.423 278.849L344.084 279.797C342.59 280.217 341.029 280.04 339.631 279.389L273.12 247.047L276.038 241.094L347.599 276.788C348.536 277.195 348.468 278.606 347.423 278.849Z" fill="#C9CDD5"/>
<path d="M281.093 159.145L196.989 117.846C196.528 117.602 195.971 117.927 195.958 118.51L196.876 201.79L279.663 242.954L281.093 159.145Z" fill="#C9CDD4"/>
<path d="M192.885 207.146L273.201 247.06L276.12 241.108L193.333 199.945L191.677 203.348C190.862 204.717 191.5 206.413 192.885 207.146Z" fill="#B1B5C0"/>
<path d="M277.93 160.039L193.406 117.75L193.252 199.931L276.038 241.094L277.93 160.039Z" fill="#BEC2CA"/>
<path d="M226.315 181.672C226.023 178.267 227.812 175.334 230.31 175.121C232.809 174.908 235.072 177.494 235.365 180.899C235.657 184.303 233.868 187.236 231.37 187.449C228.871 187.663 226.608 185.076 226.315 181.672Z" fill="#D9DDE3"/>
<path d="M281.093 159.145L277.971 160.297L193.406 117.75L194.953 117.506C195.646 117.371 196.379 117.493 196.989 117.846L281.093 159.145Z" fill="#D9DDE3"/>
<path d="M387.465 105.227C387.465 105.227 392.656 104.67 393.359 101.446C394.062 98.2227 386.801 96.6396 387.465 105.227Z" fill="#EAADA4"/>
<path d="M387.047 105.98C387.047 105.98 391.2 105.535 391.763 102.956C392.325 100.377 386.516 99.1102 387.047 105.98Z" fill="#FCC2B7"/>
<path d="M281.633 375.11C292.371 373.145 343.065 363.514 386.699 349.051C407.465 342.181 417.479 329.59 422.012 317.323C410.982 330.706 388.679 346.949 343.338 356.059C302.32 364.339 287.083 369.881 281.633 375.11Z" fill="#476FCF"/>
<path d="M148.939 501.521C153.492 519.399 192.392 527.037 192.392 527.037C192.392 527.037 194.105 525.384 195.085 522.052C182.583 520.086 158.728 514.378 151.059 498.776L148.939 501.521Z" fill="#B6BECD"/>
<path d="M43.1449 302.54C38.8149 320.445 69.7046 345.372 69.7046 345.372C69.7046 345.372 71.7762 344.787 74.0603 342.629C65.3885 335.898 50.0531 321.487 46.8452 301.41C46.6553 301.18 46.5208 301.054 46.5208 301.054L43.1449 302.54Z" fill="#B6BECD"/>
</svg>
